<?xml version="1.0" standalone="no"?><!DOCTYPE svg PUBLIC "-//W3C//DTD SVG 1.1//EN" "http://www.w3.org/Graphics/SVG/1.1/DTD/svg11.dtd"><svg t="1608964204740" class="icon" viewBox="0 0 1024 1024" version="1.1" xmlns="http://www.w3.org/2000/svg" p-id="3362" xmlns:xlink="http://www.w3.org/1999/xlink" width="128" height="128"><defs><style type="text/css"></style></defs><path d="M318.464 695.296c21.504 21.504 55.296 21.504 75.264 0l588.8-588.288c21.504-21.504 21.504-55.296 0-76.288s-55.296-21.504-75.264 0l-588.8 588.288c-21.504 21.504-21.504 54.784 0 76.288z" p-id="3363"></path><path d="M970.24 431.104c-29.184 0-53.76 23.552-53.76 53.76v431.104H108.032V108.032h431.104c29.184 0 52.736-23.552 53.76-53.76 0-29.184-23.552-53.76-52.736-53.76H53.76C24.576 0 0 23.552 0 53.76v915.968c0 14.848 5.632 28.16 15.872 38.4S39.424 1024 54.272 1024H970.24c14.848 0 28.16-5.632 38.4-15.872s15.872-23.552 15.872-38.4V484.864c-0.512-30.208-25.088-53.76-54.272-53.76z" p-id="3364"></path></svg>