<svg t="1608111517920" class="icon" viewBox="0 0 1024 1024" version="1.1" xmlns="http://www.w3.org/2000/svg" p-id="4051" width="128" height="128"><path d="M848.08 814.42H175.92a80.16 80.16 0 0 1-80.07-80.07V228.06a18.48 18.48 0 0 1 18.48-18.48h795.34a18.48 18.48 0 0 1 18.48 18.48v506.29a80.16 80.16 0 0 1-80.07 80.07zM132.8 246.54v487.81a43.17 43.17 0 0 0 43.11 43.11h672.17a43.17 43.17 0 0 0 43.11-43.11V246.54z" fill="#0897EA" p-id="4052"></path><path d="M512 601.47a18.4 18.4 0 0 1-12.08-4.5l-337-291.27a18.47 18.47 0 1 1 24.16-28L512 558.53 837.71 275A18.47 18.47 0 1 1 862 302.87L524.13 596.93a18.42 18.42 0 0 1-12.13 4.54z" fill="#FF4056" p-id="4053"></path></svg>