<?xml version="1.0" standalone="no"?><!DOCTYPE svg PUBLIC "-//W3C//DTD SVG 1.1//EN" "http://www.w3.org/Graphics/SVG/1.1/DTD/svg11.dtd"><svg t="1608964372889" class="icon" viewBox="0 0 1024 1024" version="1.1" xmlns="http://www.w3.org/2000/svg" p-id="6116" xmlns:xlink="http://www.w3.org/1999/xlink" width="128" height="128"><defs><style type="text/css"></style></defs><path d="M785.9 63.9H238.1c-13.8 0-24.9 11.1-24.9 24.9v846.5c0 9.6 5.5 18.3 14.1 22.4 8.7 4.1 18.9 3.1 26.4-3l234.7-187.8 283.6 189c4.2 2.8 9 4.2 13.8 4.2 4 0 8.1-1 11.7-3 8.1-4.3 13.2-12.7 13.2-21.9V88.8c0.1-13.8-11.1-24.9-24.8-24.9zM761 888.7L501 715.4c-4.2-2.8-9-4.2-13.8-4.2-5.5 0-11 1.8-15.6 5.4L263 883.4V113.7h498v775z" p-id="6117"></path><path d="M362.6 312.8h298.8c13.8 0 24.9-11.1 24.9-24.9S675.1 263 661.4 263H362.6c-13.8 0-24.9 11.1-24.9 24.9s11.2 24.9 24.9 24.9z m0 199.2h298.8c13.8 0 24.9-11.1 24.9-24.9s-11.1-24.9-24.9-24.9H362.6c-13.8 0-24.9 11.1-24.9 24.9s11.2 24.9 24.9 24.9z" p-id="6118"></path></svg>